HIERARCHY
ROOT hip
{
  OFFSET 0.00112043 5.09927 -9.65472
  CHANNELS 6 Xposition Yposition Zposition Zrotation Xrotation Yrotation
  JOINT abdomen
  {
    OFFSET 0 -1.186 -1.5018
    CHANNELS 3 Zrotation Xrotation Yrotation
    JOINT abdomen2
    {
      OFFSET 0 9.964 0.2134
      CHANNELS 3 Zrotation Xrotation Yrotation
      JOINT chest
      {
        OFFSET 0 13.134 -3.2573
        CHANNELS 3 Zrotation Xrotation Yrotation
        JOINT neck
        {
          OFFSET 0 20.686 -1.6905
          CHANNELS 3 Zrotation Xrotation Yrotation
          JOINT head
          {
            OFFSET 0 7.238 -0.1237
            CHANNELS 3 Zrotation Xrotation Yrotation
            End Site
            {
              OFFSET 0 0 0
            }
          }
        }
        JOINT lCollar
        {
          OFFSET 1.7069 20.075 5.0056
          CHANNELS 3 Zrotation Xrotation Yrotation
          JOINT lShldr
          {
            OFFSET 13.6458 -0.047 -4.849
            CHANNELS 3 Zrotation Xrotation Yrotation
            JOINT lForeArm
            {
              OFFSET 28.3255 -0.9759 2.2888
              CHANNELS 3 Zrotation Xrotation Yrotation
              JOINT lHand
              {
                OFFSET 22.1583 -0.53 10.8316
                CHANNELS 3 Zrotation Xrotation Yrotation
                JOINT lThumb1
                {
                  OFFSET 0.786 0.112 2.5817
                  CHANNELS 3 Zrotation Xrotation Yrotation
                  JOINT lThumb2
                  {
                    OFFSET 0.3601 -0.878 4.2331
                    CHANNELS 3 Zrotation Xrotation Yrotation
                    JOINT lThumb2_End
                    {
                      OFFSET 1.8127 -1.216 2.2227
                      CHANNELS 3 Zrotation Xrotation Yrotation
                      End Site
                      {
                        OFFSET 0.0181 -0.0122 0.0222
                      }
                    }
                  }
                }
                JOINT lCarpal1
                {
                  OFFSET 0.9571 1.114 1.7695
                  CHANNELS 3 Zrotation Xrotation Yrotation
                  JOINT lIndex1
                  {
                    OFFSET 4.1246 0.487 4.1451
                    CHANNELS 3 Zrotation Xrotation Yrotation
                    JOINT lIndex2
                    {
                      OFFSET 3.4052 -1.454 2.7682
                      CHANNELS 3 Zrotation Xrotation Yrotation
                      JOINT lIndex2_End
                      {
                        OFFSET 1.4531 -1.795 1.2713
                        CHANNELS 3 Zrotation Xrotation Yrotation
                        End Site
                        {
                          OFFSET 0.0145 -0.0179 0.0127
                        }
                      }
                    }
                  }
                  JOINT lMid1
                  {
                    OFFSET 5.6954 0.21 2.1184
                    CHANNELS 3 Zrotation Xrotation Yrotation
                    JOINT lMid2
                    {
                      OFFSET 3.9766 -1.54 2.3863
                      CHANNELS 3 Zrotation Xrotation Yrotation
                      JOINT lMid2_End
                      {
                        OFFSET 1.4042 -1.926 1.125
                        CHANNELS 3 Zrotation Xrotation Yrotation
                        End Site
                        {
                          OFFSET 0.014 -0.0193 0.0113
                        }
                      }
                    }
                  }
                }
                JOINT lCarpal2
                {
                  OFFSET 2.0956 0.66 -0.3894
                  CHANNELS 3 Zrotation Xrotation Yrotation
                  JOINT lRing1
                  {
                    OFFSET 5.0395 -0.09 2.4971
                    CHANNELS 3 Zrotation Xrotation Yrotation
                    JOINT lRing2
                    {
                      OFFSET 3.7921 -1.552 1.4806
                      CHANNELS 3 Zrotation Xrotation Yrotation
                      JOINT lRing2_End
                      {
                        OFFSET 1.4655 -1.808 0.9609
                        CHANNELS 3 Zrotation Xrotation Yrotation
                        End Site
                        {
                          OFFSET 0.0147 -0.0181 0.0096
                        }
                      }
                    }
                  }
                  JOINT lPinky1
                  {
                    OFFSET 4.9141 -1.269 0.3591
                    CHANNELS 3 Zrotation Xrotation Yrotation
                    JOINT lPinky2
                    {
                      OFFSET 3.1477 -1.685 0.8462
                      CHANNELS 3 Zrotation Xrotation Yrotation
                      JOINT lPinky2_End
                      {
                        OFFSET 0.8055 -1.585 0.7955
                        CHANNELS 3 Zrotation Xrotation Yrotation
                        End Site
                        {
                          OFFSET 0.0081 -0.0158 0.008
                        }
                      }
                    }
                  }
                }
              }
            }
          }
        }
        JOINT rCollar
        {
          OFFSET -1.7069 20.075 5.0056
          CHANNELS 3 Zrotation Xrotation Yrotation
          JOINT rShldr
          {
            OFFSET -13.6458 -0.047 -4.849
            CHANNELS 3 Zrotation Xrotation Yrotation
            JOINT rForeArm
            {
              OFFSET -28.3255 -0.9759 2.2888
              CHANNELS 3 Zrotation Xrotation Yrotation
              JOINT rHand
              {
                OFFSET -22.1583 -0.53 10.8316
                CHANNELS 3 Zrotation Xrotation Yrotation
                JOINT rThumb1
                {
                  OFFSET -0.786 0.112 2.5817
                  CHANNELS 3 Zrotation Xrotation Yrotation
                  JOINT rThumb2
                  {
                    OFFSET -0.3601 -0.878 4.2331
                    CHANNELS 3 Zrotation Xrotation Yrotation
                    JOINT rThumb2_End
                    {
                      OFFSET -1.8127 -1.216 2.2227
                      CHANNELS 3 Zrotation Xrotation Yrotation
                      End Site
                      {
                        OFFSET -0.0181 -0.0122 0.0222
                      }
                    }
                  }
                }
                JOINT rCarpal1
                {
                  OFFSET -0.9571 1.114 1.7695
                  CHANNELS 3 Zrotation Xrotation Yrotation
                  JOINT rIndex1
                  {
                    OFFSET -4.1246 0.487 4.1451
                    CHANNELS 3 Zrotation Xrotation Yrotation
                    JOINT rIndex2
                    {
                      OFFSET -3.4052 -1.454 2.7682
                      CHANNELS 3 Zrotation Xrotation Yrotation
                      JOINT rIndex2_End
                      {
                        OFFSET -1.4531 -1.795 1.2713
                        CHANNELS 3 Zrotation Xrotation Yrotation
                        End Site
                        {
                          OFFSET -0.0145 -0.018 0.0127
                        }
                      }
                    }
                  }
                  JOINT rMid1
                  {
                    OFFSET -5.6954 0.21 2.1184
                    CHANNELS 3 Zrotation Xrotation Yrotation
                    JOINT rMid2
                    {
                      OFFSET -3.9766 -1.54 2.3863
                      CHANNELS 3 Zrotation Xrotation Yrotation
                      JOINT rMid2_End
                      {
                        OFFSET -1.4042 -1.926 1.125
                        CHANNELS 3 Zrotation Xrotation Yrotation
                        End Site
                        {
                          OFFSET -0.014 -0.0193 0.0113
                        }
                      }
                    }
                  }
                }
                JOINT rCarpal2
                {
                  OFFSET -2.0956 0.66 -0.3894
                  CHANNELS 3 Zrotation Xrotation Yrotation
                  JOINT rRing1
                  {
                    OFFSET -5.0395 -0.09 2.4971
                    CHANNELS 3 Zrotation Xrotation Yrotation
                    JOINT rRing2
                    {
                      OFFSET -3.7921 -1.552 1.4806
                      CHANNELS 3 Zrotation Xrotation Yrotation
                      JOINT rRing2_End
                      {
                        OFFSET -1.4655 -1.808 0.9609
                        CHANNELS 3 Zrotation Xrotation Yrotation
                        End Site
                        {
                          OFFSET -0.0147 -0.0181 0.0096
                        }
                      }
                    }
                  }
                  JOINT rPinky1
                  {
                    OFFSET -4.9141 -1.269 0.3592
                    CHANNELS 3 Zrotation Xrotation Yrotation
                    JOINT rPinky2
                    {
                      OFFSET -3.1477 -1.685 0.8462
                      CHANNELS 3 Zrotation Xrotation Yrotation
                      JOINT rPinky2_End
                      {
                        OFFSET -0.8055 -1.585 0.7955
                        CHANNELS 3 Zrotation Xrotation Yrotation
                        End Site
                        {
                          OFFSET -0.0081 -0.0158 0.008
                        }
                      }
                    }
                  }
                }
              }
            }
          }
        }
      }
    }
  }
  JOINT lThigh
  {
    OFFSET 8.367 -8.2066 0.5982
    CHANNELS 3 Zrotation Xrotation Yrotation
    JOINT lShin
    {
      OFFSET 2.1923 -43.463 -0.4932
      CHANNELS 3 Zrotation Xrotation Yrotation
      JOINT lFoot
      {
        OFFSET 0.7333 -45.8593 -2.6451
        CHANNELS 3 Zrotation Xrotation Yrotation
        End Site
        {
          OFFSET 2.6618 -4.2699 12.3931
        }
      }
    }
  }
  JOINT rThigh
  {
    OFFSET -8.367 -8.2066 0.5982
    CHANNELS 3 Zrotation Xrotation Yrotation
    JOINT rShin
    {
      OFFSET -2.1923 -43.463 -0.4931
      CHANNELS 3 Zrotation Xrotation Yrotation
      JOINT rFoot
      {
        OFFSET -0.7333 -45.8593 -2.6451
        CHANNELS 3 Zrotation Xrotation Yrotation
        End Site
        {
          OFFSET -2.6618 -4.2699 12.3931
        }
      }
    }
  }
}
MOTION
Frames:	4
Frame Time:	0.0333333
0.0874657 86.1753 2.00107 -0 -5.07254 -0 -0.183603 2.50557 3.05663 -0.501543 4.99776 6.13007 -0.501543 4.99775 6.13007 20.8413 -27.6056 -9.44163 -0.00144887 7.71914 -10.0029 26.2496 11.1118 -74.8024 -36.7707 -14.8039 -6.36155 -59.3161 -37.7847 -60.9893 -17.2698 39.1003 7.09735 -3.18055e-015 -6.36111e-015 -4.77083e-015 -4.72311e-007 4.67177e-007 5.28501e-007 -6.36111e-015 -1.27222e-014 3.18055e-015 -3.18055e-015 -6.36111e-015 -4.77083e-015 3.53113e-031 -3.18055e-015 6.36111e-015 -4.72311e-007 4.67177e-007 5.28501e-007 -1.27222e-014 -6.36111e-015 -4.77083e-015 3.53113e-031 -3.18055e-015 6.36111e-015 -4.72311e-007 4.67177e-007 5.28501e-007 -1.27222e-014 -6.36111e-015 -4.77083e-015 -3.18055e-015 -6.36111e-015 -4.77083e-015 3.53113e-031 -3.18055e-015 6.36111e-015 -4.72311e-007 4.67177e-007 5.28501e-007 -1.27222e-014 -6.36111e-015 -4.77083e-015 3.53113e-031 -3.18055e-015 6.36111e-015 -4.72311e-007 4.67177e-007 5.28501e-007 -1.27222e-014 -6.36111e-015 -4.77083e-015 1.64891 -20.7217 11.5843 71.3092 4.47904 14.8065 -14.8371 -7.03935 21.6317 67.1288 24.5346 -27.5841 1.19848e-006 -5.45177e-006 4.28914e-006 -1.19848e-006 5.45177e-006 -4.28914e-006 1.19848e-006 -5.45177e-006 4.28914e-006 5.51738e-033 1.59028e-015 -1.98785e-016 1.19848e-006 -5.45177e-006 4.28914e-006 -1.19848e-006 5.45177e-006 -4.28914e-006 1.19848e-006 -5.45177e-006 4.28914e-006 1.19848e-006 -5.45177e-006 4.28914e-006 -1.19848e-006 5.45177e-006 -4.28914e-006 1.19848e-006 -5.45177e-006 4.28914e-006 5.51738e-033 1.59028e-015 -1.98785e-016 1.19848e-006 -5.45177e-006 4.28914e-006 -1.19848e-006 5.45177e-006 -4.28914e-006 1.19848e-006 -5.45177e-006 4.28914e-006 1.19848e-006 -5.45177e-006 4.28914e-006 -1.19848e-006 5.45177e-006 -4.28914e-006 1.19848e-006 -5.45177e-006 4.28914e-006 6.49755 -20.4414 14.2258 2.7944 43.5799 -0.748449 -10.6484 -16.9731 1.85351 -16.7899 -14.2657 -11.7825 0.249575 27.2746 -1.02924 19.7577 -4.38927 -3.4624 
0.0851469 86.3781 1.79877 -0 -4.35859 -0 -0.202396 2.35598 3.05754 -0.531068 4.69777 6.13115 -0.531067 4.69778 6.13114 20.8954 -27.725 -9.29143 -0.001453 7.3917 -10.0029 26.2496 11.1117 -74.8024 -36.7707 -14.8039 -6.36155 -59.3161 -37.7847 -60.9894 -17.2873 39.1057 7.09187 4.72535e-007 -4.67061e-007 -5.28448e-007 -4.72535e-007 4.67061e-007 5.28448e-007 9.4507e-007 -9.34123e-007 -1.0569e-006 1.76556e-031 3.18055e-015 -3.18055e-015 4.72535e-007 -4.67061e-007 -5.28448e-007 -4.72535e-007 4.67061e-007 5.28448e-007 9.4507e-007 -9.34123e-007 -1.0569e-006 4.72535e-007 -4.67061e-007 -5.28448e-007 -4.72535e-007 4.67061e-007 5.28448e-007 9.4507e-007 -9.34123e-007 -1.0569e-006 1.76556e-031 3.18055e-015 -3.18055e-015 4.72535e-007 -4.67061e-007 -5.28448e-007 -4.72535e-007 4.67061e-007 5.28448e-007 9.4507e-007 -9.34123e-007 -1.0569e-006 4.72535e-007 -4.67061e-007 -5.28448e-007 -4.72535e-007 4.67061e-007 5.28448e-007 9.4507e-007 -9.34123e-007 -1.0569e-006 1.38302 -20.5097 11.1542 71.6756 4.64273 14.8228 -14.7335 -6.95095 21.7777 66.8855 24.7143 -27.5144 -1.19835e-006 5.45184e-006 -4.2888e-006 -1.59028e-015 -1.59028e-015 1.39149e-015 6.62086e-032 3.18055e-015 -1.19271e-015 1.59028e-015 1.59028e-015 4.17448e-015 -1.19835e-006 5.45184e-006 -4.2888e-006 -0 0 1.39149e-015 4.41391e-032 1.59028e-015 -1.59028e-015 -1.19835e-006 5.45184e-006 -4.2888e-006 -0 0 1.39149e-015 4.41391e-032 1.59028e-015 -1.59028e-015 1.59028e-015 1.59028e-015 4.17448e-015 -1.19835e-006 5.45184e-006 -4.2888e-006 -0 0 1.39149e-015 4.41391e-032 1.59028e-015 -1.59028e-015 -1.19835e-006 5.45184e-006 -4.2888e-006 -0 0 1.39149e-015 4.41391e-032 1.59028e-015 -1.59028e-015 6.47297 -21.0601 14.2195 2.62752 43.0022 -0.637242 -10.5191 -16.5139 2.02696 -16.7222 -14.6893 -11.7514 0.416758 26.3901 -1.09844 19.6191 -3.89676 -3.87822 
0.0826386 86.58 1.59618 -0 -3.64481 -0 -0.221163 2.2064 3.05831 -0.560536 4.39786 6.13191 -0.560536 4.39786 6.13191 20.9501 -27.8443 -9.14095 -0.0014478 7.06403 -10.0029 26.2496 11.1117 -74.8024 -36.7707 -14.8039 -6.36154 -59.3161 -37.7847 -60.9894 -17.3048 39.1111 7.0864 4.72758e-007 -4.66947e-007 -5.28395e-007 -3.18055e-015 3.18055e-015 1.11319e-014 9.45516e-007 -9.33894e-007 -1.05679e-006 3.18055e-015 6.36111e-015 1.59028e-015 4.72758e-007 -4.66947e-007 -5.28395e-007 6.36111e-015 -6.36111e-015 -3.18055e-015 9.45516e-007 -9.33894e-007 -1.05679e-006 4.72758e-007 -4.66947e-007 -5.28395e-007 6.36111e-015 -6.36111e-015 -3.18055e-015 9.45516e-007 -9.33894e-007 -1.05679e-006 3.18055e-015 6.36111e-015 1.59028e-015 4.72758e-007 -4.66947e-007 -5.28395e-007 6.36111e-015 -6.36111e-015 -3.18055e-015 9.45516e-007 -9.33894e-007 -1.05679e-006 4.72758e-007 -4.66947e-007 -5.28395e-007 6.36111e-015 -6.36111e-015 -3.18055e-015 9.45516e-007 -9.33894e-007 -1.05679e-006 1.11924 -20.2957 10.7257 72.0421 4.80651 14.838 -14.6301 -6.86231 21.9234 66.6417 24.8937 -27.4437 -3.18055e-015 -1.59028e-015 -1.2921e-014 1.94114e-006 1.56966e-006 -2.04192e-006 -1.59028e-015 -1.59028e-015 1.98785e-016 0 0 -9.93923e-015 -1.59028e-015 1.59028e-015 -2.98177e-015 1.94114e-006 1.56966e-006 -2.04192e-006 -3.18055e-015 0 -2.78299e-015 -1.59028e-015 1.59028e-015 -2.98177e-015 1.94114e-006 1.56966e-006 -2.04192e-006 -3.18055e-015 0 -2.78299e-015 0 0 -9.93923e-015 -1.59028e-015 1.59028e-015 -2.98177e-015 1.94114e-006 1.56966e-006 -2.04192e-006 -3.18055e-015 0 -2.78299e-015 -1.59028e-015 1.59028e-015 -2.98177e-015 1.94114e-006 1.56966e-006 -2.04192e-006 -3.18055e-015 0 -2.78299e-015 6.44863 -21.6789 14.213 2.46415 42.4241 -0.529354 -10.3916 -16.0539 2.19892 -16.6542 -15.111 -11.7197 0.580937 25.5019 -1.16448 19.4843 -3.4014 -4.29283 
0.0799408 86.7811 1.39329 -0 -2.93125 -0 -0.239906 2.05692 3.05894 -0.589952 4.09805 6.13237 -0.589952 4.09805 6.13237 21.0052 -27.9637 -8.99014 -0.00144618 6.73613 -10.0029 26.2497 11.1117 -74.8024 -36.7707 -14.8039 -6.36153 -59.3161 -37.7846 -60.9894 -17.3223 39.1165 7.08095 1.41894e-006 -1.4005e-006 -1.58502e-006 -4.22673e-006 7.21863e-007 -3.78384e-006 -4.7298e-007 4.66834e-007 5.28341e-007 -3.18055e-015 -3.18055e-015 -3.18055e-015 1.41894e-006 -1.4005e-006 -1.58502e-006 -4.22673e-006 7.21863e-007 -3.78384e-006 -4.7298e-007 4.66834e-007 5.28341e-007 1.41894e-006 -1.4005e-006 -1.58502e-006 -4.22673e-006 7.21863e-007 -3.78384e-006 -4.7298e-007 4.66834e-007 5.28341e-007 -3.18055e-015 -3.18055e-015 -3.18055e-015 1.41894e-006 -1.4005e-006 -1.58502e-006 -4.22673e-006 7.21863e-007 -3.78384e-006 -4.7298e-007 4.66834e-007 5.28341e-007 1.41894e-006 -1.4005e-006 -1.58502e-006 -4.22673e-006 7.21863e-007 -3.78384e-006 -4.7298e-007 4.66834e-007 5.28341e-007 0.857555 -20.08 10.2989 72.4085 4.97036 14.8527 -14.527 -6.77339 22.069 66.3972 25.0728 -27.3721 7.92816e-007 6.48481e-007 1.4014e-006 1.14844e-006 9.21116e-007 -3.44348e-006 -1.94126e-006 -1.5696e-006 2.04209e-006 0 0 -4.77083e-015 7.92816e-007 6.48481e-007 1.4014e-006 1.14844e-006 9.21116e-007 -3.44348e-006 -1.94126e-006 -1.5696e-006 2.04209e-006 7.92816e-007 6.48481e-007 1.4014e-006 1.14844e-006 9.21116e-007 -3.44348e-006 -1.94126e-006 -1.5696e-006 2.04209e-006 0 0 -4.77083e-015 7.92816e-007 6.48481e-007 1.4014e-006 1.14844e-006 9.21116e-007 -3.44348e-006 -1.94126e-006 -1.5696e-006 2.04209e-006 7.92816e-007 6.48481e-007 1.4014e-006 1.14844e-006 9.21116e-007 -3.44348e-006 -1.94126e-006 -1.5696e-006 2.04209e-006 6.42479 -22.2964 14.2066 2.3036 41.8444 -0.424702 -10.266 -15.5931 2.36943 -16.5863 -15.5313 -11.6874 0.742856 24.6106 -1.22774 19.3529 -2.90339 -4.7062 
